# xmcd
#
# Track frame offsets:
# 150
# 13762
# 25472
# 38730
# 50335
# 63315
# 76382
# 91467
# 104222
# 117390
# 131877
# 146750
# 159070
# 173525
# 188265
# 201042
# 216282
# 228715
# 242685
# 255497
# 268420
# 281130
# 292382
# 304545
# 315390
#
# Disc length: 4406 seconds
#
#
# Revision: 0
# Processed by: cddbd v1.5.2PL0 Copyright (c) Steve Scherf et al.
# Submitted via: FreeRIP 2.96 
#
DISCID=72113419
DTITLE=Various Artist - Flashbacks #3 Copulation Blues 1926-1940
DYEAR=2000
DGENRE=Blues
TTITLE0=You Can't Tell The Difference After Dark - Alberta Hunter
TTITLE1=New Rubbing On That Darn Old Thing - Oscar's Chicago Swingers
TTITLE2=He Hadn't Up Till Yesterday - Sophie Tucker
TTITLE3=I Wonder Who's Boogiein' My Woogie Now - Oscar's Chicago Swingers
TTITLE4=Bring It On Home To Grandma - The Mississppi Mud Mashers
TTITLE5=Wet It (Let The Good Work Go On) - Frankie 'Halfpint' Jaxon With The Harlem Hamfats
TTITLE6=Nobody's Sweetheart - Cab Calloway and His Orchestra
TTITLE7=Daddy, You Got Ev'rything - Mary Dixon
TTITLE8=My Handy Man - Ethel Waters
TTITLE9=Elevator Papa, Switchboard Mama - Butterbeans and Suzie
TTITLE10=Press My Button, Ring My Bell - Lil Johnson and Black Bob
TTITLE11=Try And Get It - Bea Foote
TTITLE12=Don't Tear My Clothes No.2 - State Street Swingers
TTITLE13=Black Snake Blues - Victoria Spivey
TTITLE14=Street Walkin' Bluel - Washboard Rhythm Kings
TTITLE15=My Daddy Rocks Me (With One Steady Roll) - Tampa Red's Hokum Jug Band With Frankie 'Halfpint' Jaxon
TTITLE16=Caught Us Doin' It - The Hokum Boys
TTITLE17=Organ Grinder Blues - Clarence Williams
TTITLE18=Electric Man - Buddy Burton - Irene Sanders
TTITLE19=Shake It, Baby - Blind Boy Fuller
TTITLE20=The Hottest Stuff In Town - Bob Howe and Frankie Griggs
TTITLE21=Pussy, Pussy, Pussy - The Light Crust Doughboys
TTITLE22=A Guy What Takes His Time - Mae West
TTITLE23=No Wonder She's A Blushing Bride - Art Fowler and His Ukulele
TTITLE24=Shave 'em Dry - Lucille Bogan
EXTD=
EXTT0=
EXTT1=
EXTT2=
EXTT3=
EXTT4=
EXTT5=
EXTT6=
EXTT7=
EXTT8=
EXTT9=
EXTT10=
EXTT11=
EXTT12=
EXTT13=
EXTT14=
EXTT15=
EXTT16=
EXTT17=
EXTT18=
EXTT19=
EXTT20=
EXTT21=
EXTT22=
EXTT23=
EXTT24=
PLAYORDER=
